<svg width="22" height="24" viewBox="0 0 22 24" fill="none" xmlns="http://www.w3.org/2000/svg">
<path d="M6.5 0C7.32969 0 8 0.670312 8 1.5V3H14V1.5C14 0.670312 14.6703 0 15.5 0C16.3297 0 17 0.670312 17 1.5V3H19.25C20.4922 3 21.5 4.00781 21.5 5.25V7.5H0.5V5.25C0.5 4.00781 1.50781 3 2.75 3H5V1.5C5 0.670312 5.67031 0 6.5 0ZM0.5 9H21.5V21.75C21.5 22.9922 20.4922 24 19.25 24H2.75C1.50781 24 0.5 22.9922 0.5 21.75V9ZM3.5 12.75V14.25C3.5 14.6625 3.8375 15 4.25 15H5.75C6.1625 15 6.5 14.6625 6.5 14.25V12.75C6.5 12.3375 6.1625 12 5.75 12H4.25C3.8375 12 3.5 12.3375 3.5 12.75ZM9.5 12.75V14.25C9.5 14.6625 9.8375 15 10.25 15H11.75C12.1625 15 12.5 14.6625 12.5 14.25V12.75C12.5 12.3375 12.1625 12 11.75 12H10.25C9.8375 12 9.5 12.3375 9.5 12.75ZM16.25 12C15.8375 12 15.5 12.3375 15.5 12.75V14.25C15.5 14.6625 15.8375 15 16.25 15H17.75C18.1625 15 18.5 14.6625 18.5 14.25V12.75C18.5 12.3375 18.1625 12 17.75 12H16.25ZM3.5 18.75V20.25C3.5 20.6625 3.8375 21 4.25 21H5.75C6.1625 21 6.5 20.6625 6.5 20.25V18.75C6.5 18.3375 6.1625 18 5.75 18H4.25C3.8375 18 3.5 18.3375 3.5 18.75ZM10.25 18C9.8375 18 9.5 18.3375 9.5 18.75V20.25C9.5 20.6625 9.8375 21 10.25 21H11.75C12.1625 21 12.5 20.6625 12.5 20.25V18.75C12.5 18.3375 12.1625 18 11.75 18H10.25ZM15.5 18.75V20.25C15.5 20.6625 15.8375 21 16.25 21H17.75C18.1625 21 18.5 20.6625 18.5 20.25V18.75C18.5 18.3375 18.1625 18 17.75 18H16.25C15.8375 18 15.5 18.3375 15.5 18.75Z" fill="white"/>
</svg>
