<svg width="18" height="12" viewBox="0 0 18 12" fill="none" xmlns="http://www.w3.org/2000/svg">
<path d="M2 0C0.896875 0 0 0.896875 0 2V4C0 4.275 0.23125 4.49063 0.490625 4.58125C1.07812 4.78438 1.5 5.34375 1.5 6C1.5 6.65625 1.07812 7.21562 0.490625 7.41875C0.23125 7.50937 0 7.725 0 8V10C0 11.1031 0.896875 12 2 12H16C17.1031 12 18 11.1031 18 10V8C18 7.725 17.7687 7.50937 17.5094 7.41875C16.9219 7.21562 16.5 6.65625 16.5 6C16.5 5.34375 16.9219 4.78438 17.5094 4.58125C17.7687 4.49063 18 4.275 18 4V2C18 0.896875 17.1031 0 16 0H2ZM4 3.5V8.5C4 8.775 4.225 9 4.5 9H13.5C13.775 9 14 8.775 14 8.5V3.5C14 3.225 13.775 3 13.5 3H4.5C4.225 3 4 3.225 4 3.5ZM3 3C3 2.44688 3.44688 2 4 2H14C14.5531 2 15 2.44688 15 3V9C15 9.55313 14.5531 10 14 10H4C3.44688 10 3 9.55313 3 9V3Z" fill="#374151"/>
</svg>
