<svg width="18" height="14" viewBox="0 0 18 14" fill="none" xmlns="http://www.w3.org/2000/svg">
<path d="M9.00001 1.5C6.96251 1.5 5.28751 2.425 4.00314 3.61562C2.80001 4.73437 1.96876 6.0625 1.54376 7C1.96876 7.9375 2.80001 9.26562 4.00001 10.3844C5.28751 11.575 6.96251 12.5 9.00001 12.5C11.0375 12.5 12.7125 11.575 13.9969 10.3844C15.2 9.26562 16.0313 7.9375 16.4563 7C16.0313 6.0625 15.2 4.73437 14 3.61562C12.7125 2.425 11.0375 1.5 9.00001 1.5ZM2.98126 2.51875C4.45314 1.15 6.47501 0 9.00001 0C11.525 0 13.5469 1.15 15.0188 2.51875C16.4813 3.87812 17.4594 5.5 17.925 6.61562C18.0281 6.8625 18.0281 7.1375 17.925 7.38437C17.4594 8.5 16.4813 10.125 15.0188 11.4812C13.5469 12.85 11.525 14 9.00001 14C6.47501 14 4.45314 12.85 2.98126 11.4812C1.51876 10.125 0.540637 8.5 0.0781372 7.38437C-0.0249878 7.1375 -0.0249878 6.8625 0.0781372 6.61562C0.540637 5.5 1.51876 3.875 2.98126 2.51875ZM9.00001 9.5C10.3813 9.5 11.5 8.38125 11.5 7C11.5 5.61875 10.3813 4.5 9.00001 4.5C8.97814 4.5 8.95939 4.5 8.93751 4.5C8.97814 4.65937 9.00001 4.82812 9.00001 5C9.00001 6.10312 8.10314 7 7.00001 7C6.82814 7 6.65939 6.97812 6.50001 6.9375C6.50001 6.95937 6.50001 6.97813 6.50001 7C6.50001 8.38125 7.61876 9.5 9.00001 9.5ZM9.00001 3C10.0609 3 11.0783 3.42143 11.8284 4.17157C12.5786 4.92172 13 5.93913 13 7C13 8.06087 12.5786 9.07828 11.8284 9.82843C11.0783 10.5786 10.0609 11 9.00001 11C7.93915 11 6.92173 10.5786 6.17159 9.82843C5.42144 9.07828 5.00001 8.06087 5.00001 7C5.00001 5.93913 5.42144 4.92172 6.17159 4.17157C6.92173 3.42143 7.93915 3 9.00001 3Z" fill="#9CA3AF"/>
</svg>
