<svg width="16" height="16" viewBox="0 0 16 16" fill="none" xmlns="http://www.w3.org/2000/svg">
<path d="M7.26562 0.162497C7.73125 -0.053128 8.26875 -0.053128 8.73438 0.162497L15.5656 3.31875C15.8312 3.44062 16 3.70625 16 4C16 4.29375 15.8312 4.55937 15.5656 4.68125L8.73438 7.8375C8.26875 8.05312 7.73125 8.05312 7.26562 7.8375L0.434375 4.68125C0.16875 4.55625 0 4.29062 0 4C0 3.70937 0.16875 3.44062 0.434375 3.31875L7.26562 0.162497ZM13.9031 6.55L15.5656 7.31875C15.8312 7.44062 16 7.70625 16 8C16 8.29375 15.8312 8.55937 15.5656 8.68125L8.73438 11.8375C8.26875 12.0531 7.73125 12.0531 7.26562 11.8375L0.434375 8.68125C0.16875 8.55625 0 8.29062 0 8C0 7.70937 0.16875 7.44062 0.434375 7.31875L2.09687 6.55L6.84688 8.74375C7.57812 9.08125 8.42188 9.08125 9.15312 8.74375L13.9031 6.55ZM9.15312 12.7437L13.9031 10.55L15.5656 11.3187C15.8312 11.4406 16 11.7062 16 12C16 12.2937 15.8312 12.5594 15.5656 12.6812L8.73438 15.8375C8.26875 16.0531 7.73125 16.0531 7.26562 15.8375L0.434375 12.6812C0.16875 12.5562 0 12.2906 0 12C0 11.7094 0.16875 11.4406 0.434375 11.3187L2.09687 10.55L6.84688 12.7437C7.57812 13.0812 8.42188 13.0812 9.15312 12.7437Z" fill="#111827"/>
</svg>
