<svg width="14" height="13" viewBox="0 0 14 13" fill="none" xmlns="http://www.w3.org/2000/svg">
<path d="M10.3332 2.6457L13.691 6.00352C13.8879 6.20039 14 6.47109 14 6.75C14 7.02891 13.8879 7.29961 13.691 7.49648L10.3332 10.8543C10.1582 11.0293 9.92305 11.125 9.67695 11.125C9.16562 11.125 8.75 10.7094 8.75 10.198V8.5H5.25C4.76602 8.5 4.375 8.10898 4.375 7.625V5.875C4.375 5.39102 4.76602 5 5.25 5H8.75V3.30195C8.75 2.79062 9.16562 2.375 9.67695 2.375C9.92305 2.375 10.1582 2.47344 10.3332 2.6457ZM4.375 2.375H2.625C2.14102 2.375 1.75 2.76602 1.75 3.25V10.25C1.75 10.734 2.14102 11.125 2.625 11.125H4.375C4.85898 11.125 5.25 11.516 5.25 12C5.25 12.484 4.85898 12.875 4.375 12.875H2.625C1.17578 12.875 0 11.6992 0 10.25V3.25C0 1.80078 1.17578 0.625 2.625 0.625H4.375C4.85898 0.625 5.25 1.01602 5.25 1.5C5.25 1.98398 4.85898 2.375 4.375 2.375Z" fill="white"/>
</svg>
