<svg width="34" height="23" viewBox="0 0 34 23" fill="none" xmlns="http://www.w3.org/2000/svg">
<path d="M3.875 0C1.80664 0 0.125 1.68164 0.125 3.75V7.5C0.125 8.01563 0.558594 8.41992 1.04492 8.58984C2.14648 8.9707 2.9375 10.0195 2.9375 11.25C2.9375 12.4805 2.14648 13.5293 1.04492 13.9102C0.558594 14.0801 0.125 14.4844 0.125 15V18.75C0.125 20.8184 1.80664 22.5 3.875 22.5H30.125C32.1934 22.5 33.875 20.8184 33.875 18.75V15C33.875 14.4844 33.4414 14.0801 32.9551 13.9102C31.8535 13.5293 31.0625 12.4805 31.0625 11.25C31.0625 10.0195 31.8535 8.9707 32.9551 8.58984C33.4414 8.41992 33.875 8.01563 33.875 7.5V3.75C33.875 1.68164 32.1934 0 30.125 0H3.875ZM7.625 6.5625V15.9375C7.625 16.4531 8.04687 16.875 8.5625 16.875H25.4375C25.9531 16.875 26.375 16.4531 26.375 15.9375V6.5625C26.375 6.04687 25.9531 5.625 25.4375 5.625H8.5625C8.04687 5.625 7.625 6.04687 7.625 6.5625ZM5.75 5.625C5.75 4.58789 6.58789 3.75 7.625 3.75H26.375C27.4121 3.75 28.25 4.58789 28.25 5.625V16.875C28.25 17.9121 27.4121 18.75 26.375 18.75H7.625C6.58789 18.75 5.75 17.9121 5.75 16.875V5.625Z" fill="white"/>
</svg>
