<svg width="21" height="16" viewBox="0 0 21 16" fill="none" xmlns="http://www.w3.org/2000/svg">
<path d="M3.35938 4C3.35938 2.93913 3.7808 1.92172 4.53095 1.17157C5.28109 0.421427 6.29851 0 7.35938 0C8.42024 0 9.43766 0.421427 10.1878 1.17157C10.9379 1.92172 11.3594 2.93913 11.3594 4C11.3594 5.06087 10.9379 6.07828 10.1878 6.82843C9.43766 7.57857 8.42024 8 7.35938 8C6.29851 8 5.28109 7.57857 4.53095 6.82843C3.7808 6.07828 3.35938 5.06087 3.35938 4ZM0.359375 15.0719C0.359375 11.9937 2.85313 9.5 5.93125 9.5H8.7875C11.8656 9.5 14.3594 11.9937 14.3594 15.0719C14.3594 15.5844 13.9437 16 13.4312 16H1.2875C0.775 16 0.359375 15.5844 0.359375 15.0719ZM16.1094 9.75V7.75H14.1094C13.6937 7.75 13.3594 7.41563 13.3594 7C13.3594 6.58437 13.6937 6.25 14.1094 6.25H16.1094V4.25C16.1094 3.83437 16.4437 3.5 16.8594 3.5C17.275 3.5 17.6094 3.83437 17.6094 4.25V6.25H19.6094C20.025 6.25 20.3594 6.58437 20.3594 7C20.3594 7.41563 20.025 7.75 19.6094 7.75H17.6094V9.75C17.6094 10.1656 17.275 10.5 16.8594 10.5C16.4437 10.5 16.1094 10.1656 16.1094 9.75Z" fill="white"/>
</svg>
